<?xml version="1.0" encoding="UTF-8" standalone="no"?>
<!-- Creator: CorelDRAW 2018 (64-Bit) -->

<svg
   xml:space="preserve"
   width="54.483337mm"
   height="12.884533mm"
   version="1.1"
   style="clip-rule:evenodd;fill-rule:evenodd;image-rendering:optimizeQuality;shape-rendering:geometricPrecision;text-rendering:geometricPrecision"
   viewBox="0 0 5944.5337 1405.8"
   id="svg12"
   sodipodi:docname="simployer-headerlogo.svg"
   inkscape:version="1.1 (c68e22c387, 2021-05-23)"
   xmlns:inkscape="http://www.inkscape.org/namespaces/inkscape"
   xmlns:sodipodi="http://sodipodi.sourceforge.net/DTD/sodipodi-0.dtd"
   xmlns="http://www.w3.org/2000/svg"
   xmlns:svg="http://www.w3.org/2000/svg"><sodipodi:namedview
   id="namedview14"
   pagecolor="#ffffff"
   bordercolor="#666666"
   borderopacity="1.0"
   inkscape:pageshadow="2"
   inkscape:pageopacity="0.0"
   inkscape:pagecheckerboard="0"
   inkscape:document-units="mm"
   showgrid="true"
   inkscape:zoom="2.417492"
   inkscape:cx="221.51056"
   inkscape:cy="22.130373"
   inkscape:window-width="1920"
   inkscape:window-height="1009"
   inkscape:window-x="-8"
   inkscape:window-y="-8"
   inkscape:window-maximized="1"
   inkscape:current-layer="Layer_x0020_1"><inkscape:grid
     type="xygrid"
     id="grid831"
     originx="-0.0070236418"
     originy="-547.31998" /></sodipodi:namedview>
 <defs
   id="defs4">
  <style
   type="text/css"
   id="style2">
   <![CDATA[
    .fil0 {fill:none}
    .fil1 {fill:white;fill-rule:nonzero}
   ]]>
  </style>
 </defs>
 <g
   id="Layer_x0020_1"
   inkscape:label="Layer 1"
   inkscape:groupmode="layer"
   transform="translate(-0.00702365,-547.32)">
  <metadata
   id="CorelCorpID_0Corel-Layer" />
  
  <path
   class="fil1"
   d="m 5925.76,865.67 c -14.51,-3.67 -26.8,-5.12 -42.45,-5.12 -70.75,0 -135.36,35.31 -178.89,94.36 l -1.72,-54.37 c -0.44,-13.34 -11.41,-23.96 -24.78,-23.96 h -112.18 c -6.79,0 -13.34,2.81 -18.05,7.87 -4.69,4.98 -7.08,11.69 -6.64,18.55 4.06,60.22 5.78,127.56 5.78,218.31 v 485.07 c 0,13.71 11.12,24.76 24.76,24.76 h 126.7 c 13.73,0 24.78,-11.04 24.78,-24.76 v -375.84 c 0,-19.78 2.66,-38.39 5.41,-55.3 16.22,-88.93 72.75,-144.25 147.56,-144.25 14.87,0 26.43,1.1 38.39,3.76 7.44,1.58 14.95,-0.14 20.87,-4.84 5.85,-4.69 9.24,-11.83 9.24,-19.34 V 889.65 c 0,-11.34 -7.72,-21.22 -18.77,-23.97 z m -814.62,136.17 v 0 c 43.83,0 78.98,13.2 104.55,39.19 35.08,35.74 45.04,87.21 47.64,119.61 h -319.52 c 15.52,-68.86 63.1,-158.81 167.34,-158.81 z m 10.18,-141.28 c -209.2,0 -355.38,166.54 -355.38,404.98 0,230.95 145.75,380.17 371.42,380.17 118.31,0 198.38,-24.97 244.73,-45.91 10.82,-4.83 16.66,-16.75 13.92,-28.3 l -21.88,-91.75 c -1.65,-7.08 -6.35,-13.06 -12.93,-16.39 -6.42,-3.25 -14.07,-3.55 -20.77,-0.65 -42.24,17.83 -93.93,34.45 -185.54,34.45 -61.36,0 -200.82,-19.64 -215.85,-195.21 h 469.24 c 12.63,0 23.17,-9.46 24.63,-22.03 l 0.64,-5.4 c 1.58,-13.07 3.9,-32.85 3.9,-57.04 0,-177.67 -97.75,-356.91 -316.13,-356.91 z m -381.74,16.03 h -135.5 c -10.62,0 -20.08,6.79 -23.47,16.82 l -139.83,413.58 c -8.3,24.34 -16.03,49.31 -23.17,73.42 -7.43,-23.61 -15.45,-48.01 -23.46,-71.04 L 4239.81,892.74 c -3.61,-9.74 -12.85,-16.16 -23.24,-16.16 h -139.85 c -8.23,0 -15.86,4.1 -20.49,10.89 -4.63,6.79 -5.55,15.45 -2.45,23.11 l 260.38,648.95 c 6.08,16.45 7.29,22.66 7.29,24.68 -0.34,3.61 -5.34,14.79 -8.06,20.86 -23.11,51.98 -60.65,101.87 -101.14,133.92 -42.68,36.1 -86.72,52.57 -103.67,57.97 -12.92,4.11 -20.06,17.69 -16.24,30.68 l 32.04,107.78 c 3.19,10.62 12.93,17.7 23.68,17.7 1.52,0 2.97,-0.14 4.47,-0.44 20.29,-3.69 92.48,-20.93 169.15,-88.64 97.03,-84.11 162.3,-223.52 248.7,-451.29 l 192.32,-502.6 c 2.88,-7.57 1.88,-16.09 -2.75,-22.81 -4.62,-6.71 -12.2,-10.75 -20.36,-10.75 z m -1066.55,624.9 v 0 c -109.73,0 -189.37,-103.54 -189.37,-246.19 0,-123.95 59.42,-249.06 192.26,-249.06 147.48,0 186.45,160.99 186.45,246.17 0,144.33 -79.62,249.08 -189.34,249.08 z m 5.85,-640.93 c -220.47,0 -374.38,164.09 -374.38,399.15 0,228.12 149.14,387.46 362.68,387.46 181.05,0 375.9,-124.88 375.9,-399.16 0,-228.13 -149.8,-387.45 -364.2,-387.45 z m -514.3,-313.24 h -128.21 c -13.64,0 -24.76,11.12 -24.76,24.82 v 1034.24 c 0,13.71 11.12,24.76 24.76,24.76 h 128.21 c 13.66,0 24.78,-11.04 24.78,-24.76 V 572.14 c 0,-13.7 -11.12,-24.82 -24.78,-24.82 z m -442.96,702.2 v 0 c 0,152.68 -72.56,247.63 -189.36,247.63 -80.06,0 -147.71,-52.93 -167.99,-129.67 -2.74,-15.16 -5.35,-31.31 -5.35,-48.07 V 1198.5 c 0,-15.38 4.5,-33.58 7.95,-46.28 21.22,-82.52 91.03,-140.2 169.72,-140.2 127.78,0 185.02,119.34 185.02,237.52 z M 2575.94,860.55 c -94.56,0 -173.62,32.85 -231.87,95.8 l -2.75,-56.24 c -0.57,-13.14 -11.48,-23.52 -24.68,-23.52 h -115.08 c -6.72,0 -13.21,2.73 -17.9,7.66 -4.7,4.83 -7.15,11.39 -6.85,18.18 3.1,70.76 5.84,141.5 5.84,229.07 v 763.36 c 0,13.66 11.05,24.78 24.77,24.78 h 126.7 c 13.7,0 24.82,-11.12 24.82,-24.78 v -318.15 c 49.39,44.9 118.4,70.46 195.14,70.46 171.89,0 345.29,-124.75 345.29,-403.49 0,-221.99 -136,-383.12 -323.42,-383.12 z m -808.76,0 c -68.37,0 -121.08,16.81 -170.65,54.5 -23.03,17.18 -44.11,38.62 -62.17,63.17 -42.22,-73.56 -117.3,-117.67 -204.22,-117.67 -83.53,0 -152.03,29.73 -204.3,88.58 l -2.53,-49.11 c -0.72,-13.13 -11.54,-23.45 -24.76,-23.45 h -112.2 c -6.85,0 -13.41,2.89 -18.11,7.93 -4.69,5.06 -7.08,11.78 -6.57,18.7 4.05,54.07 5.77,110.6 5.77,188.93 v 514.23 c 0,13.71 11.12,24.76 24.76,24.76 h 125.26 c 13.73,0 24.78,-11.04 24.78,-24.76 V 1181 c 0,-20.59 3.02,-39.2 9.08,-55.15 16.97,-53.43 66.5,-110.9 135.15,-110.9 113.56,0 122.36,129.3 122.36,168.93 v 422.47 c 0,13.71 11.12,24.76 24.76,24.76 h 125.32 c 13.64,0 24.76,-11.04 24.76,-24.76 v -435.53 c 0,-18.7 3.26,-39.21 8.83,-55.96 17.32,-49.74 63.66,-99.91 128.05,-99.91 85.11,0 128.3,64.68 128.3,192.32 v 399.08 c 0,13.71 11.05,24.76 24.76,24.76 h 125.26 c 13.64,0 24.76,-11.04 24.76,-24.76 v -415.19 c 0,-314.68 -213.62,-330.64 -256.42,-330.64 z M 715.36,1422.86 c -59.79,0 -104.9,45.12 -104.9,104.9 0,58.91 43.89,103.38 102,103.38 31.48,0 59.55,-11.12 79.12,-31.34 18.48,-19.14 28.15,-45.04 27.21,-72.04 0,-60.79 -43.53,-104.9 -103.44,-104.9 z m 0,-412.29 c -59.79,0 -104.9,45.12 -104.9,104.9 0,58.98 43.89,103.46 102,103.46 31.48,0 59.55,-11.12 79.12,-31.41 18.48,-19.05 28.15,-44.97 27.21,-72.04 0,-60.79 -43.53,-104.9 -103.44,-104.9 z m 0,-412.22 c -59.79,0 -104.9,45.04 -104.9,104.9 0,58.91 43.89,103.38 102,103.38 31.48,0 59.55,-11.12 79.12,-31.34 18.48,-19.12 28.15,-45.04 27.21,-72.04 0,-60.79 -43.53,-104.9 -103.44,-104.9 z m -405.01,575.52 c -92.69,-35.23 -118.03,-55.95 -118.03,-96.3 0,-43.33 36.54,-71.33 93.2,-71.33 65.41,0 113.43,25.86 130.96,36.98 6.35,3.96 14.22,4.9 21.44,2.37 7.15,-2.53 12.79,-8.15 15.24,-15.3 l 32.04,-93.21 c 3.83,-11.12 -0.72,-23.38 -10.82,-29.38 -49.81,-29.52 -119.34,-47.13 -185.97,-47.13 -155.28,0 -268.04,97.38 -268.04,231.59 0,68.73 35.23,163.15 202.71,222.79 96.6,35.74 114.93,64.97 114.93,106.49 0,50.89 -40.94,80.06 -112.25,80.06 -57.76,0 -119.7,-23.55 -155.45,-46.94 -6.42,-4.18 -14.5,-5.18 -21.72,-2.66 -7.29,2.59 -12.93,8.37 -15.3,15.66 l -32.07,97.61 c -3.6,11.12 0.94,23.17 10.98,29.09 55.67,32.71 132.41,51.48 210.66,51.48 175.2,0 288.47,-92.62 288.47,-235.99 0,-110.17 -62.01,-182.87 -200.99,-235.86 z"
   id="path9"
   inkscape:label="path9"
   style="fill:#ffffff" />
 </g>
</svg>
