<svg width="16" height="16" viewBox="0 0 16 16" fill="none" xmlns="http://www.w3.org/2000/svg">
<path d="M6.81406 8.46453C5.83906 8.07743 5.57656 7.84517 5.57656 7.41937C5.57656 6.95485 5.95156 6.64517 6.55156 6.64517C7.22656 6.64517 7.75156 6.91614 7.93906 7.03227C8.01406 7.07098 8.08906 7.07098 8.16406 7.07098C8.23906 7.03227 8.31406 6.99356 8.31406 6.91614L8.65156 5.90969C8.68906 5.79356 8.65156 5.63872 8.53906 5.60001C8.01406 5.25162 7.26406 5.05807 6.58906 5.05807C4.93906 5.05807 3.73906 6.14195 3.73906 7.5742C3.73906 8.30969 4.11406 9.35485 5.87656 10.0129C6.88906 10.4 7.07656 10.7097 7.07656 11.1742C7.07656 11.7161 6.62656 12.0645 5.87656 12.0645C5.27656 12.0645 4.63906 11.7936 4.26406 11.5226C4.18906 11.4839 4.11406 11.4839 4.03906 11.4839C3.96406 11.5226 3.88906 11.6 3.85156 11.6774L3.51406 12.7613C3.47656 12.8774 3.51406 13.0323 3.62656 13.071C4.22656 13.4194 5.01406 13.6516 5.87656 13.6516C7.75156 13.6516 8.95156 12.6452 8.95156 11.0581C8.95156 9.85808 8.27656 9.04517 6.81406 8.46453Z" fill="black"/>
<path d="M11.089 2.15485C10.4515 2.15485 9.96402 2.65807 9.96402 3.31614C9.96402 3.9742 10.414 4.43872 11.0515 4.43872C11.389 4.43872 11.689 4.32259 11.8765 4.09033C12.064 3.89678 12.1765 3.5871 12.1765 3.31614C12.1765 2.65807 11.7265 2.15485 11.089 2.15485Z" fill="black"/>
<path d="M11.089 6.68387C10.4515 6.68387 9.96402 7.18709 9.96402 7.84516C9.96402 8.50322 10.414 8.96774 11.0515 8.96774C11.389 8.96774 11.689 8.85161 11.8765 8.61935C12.064 8.4258 12.1765 8.11613 12.1765 7.84516C12.1765 7.14838 11.7265 6.68387 11.089 6.68387Z" fill="black"/>
<path d="M11.089 11.2129C10.4515 11.2129 9.96402 11.7161 9.96402 12.3742C9.96402 13.0322 10.414 13.4968 11.0515 13.4968C11.389 13.4968 11.689 13.3806 11.8765 13.1484C12.064 12.9548 12.1765 12.6451 12.1765 12.3742C12.1765 11.6774 11.7265 11.2129 11.089 11.2129Z" fill="black"/>
</svg>
